<svg width="592" height="572" xmlns="http://www.w3.org/2000/svg" xmlns:xlink="http://www.w3.org/1999/xlink" overflow="hidden"><g transform="translate(-344 -74)"><path d="M554.5 162C554.5 114.78 593.004 76.5001 640.5 76.5001 687.997 76.5001 726.5 114.78 726.5 162 726.5 209.22 687.997 247.5 640.5 247.5 593.004 247.5 554.5 209.22 554.5 162Z" stroke="#FFFFFF" stroke-width="1.33333" stroke-miterlimit="8" fill="#ED7D31" fill-rule="evenodd"/><path d="M735.033 209.006 753.555 222.463 760.366 213.088 761.859 249.981 726.311 259.961 733.122 250.586 714.6 237.13 735.033 209.006Z" fill="#ED7D31" fill-rule="evenodd"/><path d="M763.5 313.5C763.5 266.004 802.004 227.5 849.5 227.5 896.997 227.5 935.5 266.004 935.5 313.5 935.5 360.997 896.997 399.5 849.5 399.5 802.004 399.5 763.5 360.997 763.5 313.5Z" stroke="#FFFFFF" stroke-width="1.33333" stroke-miterlimit="8" fill="#A5A5A5" fill-rule="evenodd"/><path d="M832.906 418.207 825.832 439.98 836.852 443.561 802.227 456.382 781.75 425.657 792.771 429.238 799.845 407.464 832.906 418.207Z" fill="#A5A5A5" fill-rule="evenodd"/><path d="M683.5 559C683.5 511.78 722.004 473.5 769.5 473.5 816.997 473.5 855.5 511.78 855.5 559 855.5 606.22 816.997 644.5 769.5 644.5 722.004 644.5 683.5 606.22 683.5 559Z" stroke="#FFFFFF" stroke-width="1.33333" stroke-miterlimit="8" fill="#FFC000" fill-rule="evenodd"/><path d="M664 576.4 641 576.4 641 588 618 559 641 530 641 541.6 664 541.6 664 576.4Z" fill="#FFC000" fill-rule="evenodd"/><path d="M425.5 559C425.5 511.78 464.004 473.5 511.5 473.5 558.997 473.5 597.5 511.78 597.5 559 597.5 606.22 558.997 644.5 511.5 644.5 464.004 644.5 425.5 606.22 425.5 559Z" stroke="#FFFFFF" stroke-width="1.33333" stroke-miterlimit="8" fill="#5B9BD5" fill-rule="evenodd"/><path d="M462.043 464.218 454.969 442.445 443.948 446.025 464.425 415.3 499.05 428.122 488.03 431.702 495.104 453.476 462.043 464.218Z" fill="#5B9BD5" fill-rule="evenodd"/><path d="M345.5 313.5C345.5 266.004 384.004 227.5 431.5 227.5 478.997 227.5 517.5 266.004 517.5 313.5 517.5 360.997 478.997 399.5 431.5 399.5 384.004 399.5 345.5 360.997 345.5 313.5Z" stroke="#FFFFFF" stroke-width="1.33333" stroke-miterlimit="8" fill="#70AD47" fill-rule="evenodd"/><path d="M505.827 237.443 524.349 223.986 517.538 214.612 553.086 224.591 551.592 261.484 544.781 252.109 526.26 265.566 505.827 237.443Z" fill="#70AD47" fill-rule="evenodd"/></g></svg>