<svg width="760" height="572" xmlns="http://www.w3.org/2000/svg" xmlns:xlink="http://www.w3.org/1999/xlink" overflow="hidden"><g transform="translate(-260 -74)"><path d="M687.5 76.5001 779.5 122.175 779.5 240.825 687.5 286.5 595.5 240.825 595.5 122.175 687.5 76.5001Z" stroke="#FFFFFF" stroke-width="1.33333" stroke-miterlimit="8" fill="#ED7D31" fill-rule="evenodd"/><path d="M489.5 76.5001 581.5 122.175 581.5 240.825 489.5 286.5 397.5 240.825 397.5 122.175 489.5 76.5001Z" stroke="#FFFFFF" stroke-width="1.33333" stroke-miterlimit="8" fill="#A5A5A5" fill-rule="evenodd"/><path d="M588 255.5 679.5 301.175 679.5 419.825 588 465.5 496.5 419.825 496.5 301.175 588 255.5Z" stroke="#FFFFFF" stroke-width="1.33333" stroke-miterlimit="8" fill="#FFC000" fill-rule="evenodd"/><path d="M786 255.5 877.5 301.175 877.5 419.825 786 465.5 694.5 419.825 694.5 301.175 786 255.5Z" stroke="#FFFFFF" stroke-width="1.33333" stroke-miterlimit="8" fill="#5B9BD5" fill-rule="evenodd"/><path d="M687.5 434.5 779.5 480.175 779.5 598.825 687.5 644.5 595.5 598.825 595.5 480.175 687.5 434.5Z" stroke="#FFFFFF" stroke-width="1.33333" stroke-miterlimit="8" fill="#70AD47" fill-rule="evenodd"/><path d="M489.5 434.5 581.5 480.175 581.5 598.825 489.5 644.5 397.5 598.825 397.5 480.175 489.5 434.5Z" stroke="#FFFFFF" stroke-width="1.33333" stroke-miterlimit="8" fill="#ED7D31" fill-rule="evenodd"/></g></svg>